Coordinates
version=1
nRows=16
nColumns=22
inDegrees=yes

Units are S.I. units (second, meters, Newtons, ...)
If the header above contains a line with 'inDegrees', this indicates whether rotational values are in degrees (yes) or radians (no).

endheader
time	pelvis_tilt	pelvis_list	pelvis_rotation	pelvis_tx	pelvis_ty	pelvis_tz	hip_flexion_r	hip_adduction_r	hip_rotation_r	knee_angle_r	ankle_angle_r	subtalar_angle_r	hip_flexion_l	hip_adduction_l	hip_rotation_l	knee_angle_l	ankle_angle_l	subtalar_angle_l	lumbar_extension	lumbar_bending	lumbar_rotation
      1.05000000	      1.10815974	     -4.38169342	     -6.69541209	     -1.39184804	      1.01670881	     -0.11610221	     -5.18335032	      8.41142078	     -4.42371226	    -10.49375804	     13.75599747	     -3.92743957	     20.37763583	     -7.14254790	     -5.51851259	    -39.76192125	     13.82802847	      0.30036340	    -16.50709436	      2.91790190	      7.89204460
      1.06000000	      1.11509912	     -4.34496985	     -6.80763374	     -1.38898263	      1.01639688	     -0.11585350	     -5.34499269	      8.34482355	     -4.30919969	    -10.54971732	     13.92420577	     -3.91077296	     20.87954310	     -7.25766606	     -5.99136314	    -39.15327833	     13.60910486	      0.39534059	    -16.68087379	      2.83330256	      7.91454309
      1.07000000	      1.11885002	     -4.31459399	     -6.90368450	     -1.38604755	      1.01602478	     -0.11565744	     -5.49891552	      8.28372271	     -4.20436221	    -10.62196260	     14.11035936	     -3.89205138	     21.38721704	     -7.38348986	     -6.48759019	    -38.50212690	     13.34938023	      0.48220351	    -16.86211541	      2.75717671	      7.89096075
      1.08000000	      1.11987047	     -4.28715083	     -6.98647571	     -1.38303840	      1.01559253	     -0.11551845	     -5.64384642	      8.22246777	     -4.10725996	    -10.71427810	     14.31511810	     -3.87247193	     21.90111708	     -7.51030749	     -6.98691138	    -37.81879400	     13.04006123	      0.56425045	    -17.05011563	      2.68685754	      7.83238559
      1.09000000	      1.11848903	     -4.26529174	     -7.05099059	     -1.37994442	      1.01510011	     -0.11543041	     -5.78300847	      8.16603016	     -4.02517133	    -10.82181322	     14.53259860	     -3.85509570	     22.42242091	     -7.63591970	     -7.46915334	    -37.11233423	     12.68302682	      0.64384564	    -17.24343816	      2.62425811	      7.73804377
      1.10000000	      1.11318978	     -4.23988944	     -7.10902648	     -1.37674759	      1.01455449	     -0.11538970	     -5.91209414	      8.10315997	     -3.94459321	    -10.95144037	     14.76866492	     -3.83829716	     22.94436322	     -7.74732195	     -7.92811826	    -36.37909808	     12.27345820	      0.73785852	    -17.43622358	      2.55755740	      7.63132647
      1.11000000	      1.10389999	     -4.20740773	     -7.16340636	     -1.37343912	      1.01395898	     -0.11539947	     -6.03145668	      8.02934792	     -3.86489348	    -11.10233468	     15.02237810	     -3.82059986	     23.46367875	     -7.83784094	     -8.35355028	    -35.61897153	     11.81915146	      0.86511570	    -17.62676637	      2.48443029	      7.51990724
      1.12000000	      1.09209914	     -4.17503846	     -7.20719183	     -1.36999831	      1.01331651	     -0.11545855	     -6.15112221	      7.95379977	     -3.79354788	    -11.26150005	     15.28751447	     -3.80486488	     23.97801611	     -7.91049295	     -8.72479521	    -34.83665476	     11.32455594	      1.02997684	    -17.81358235	      2.41182343	      7.41006526
      1.13000000	      1.07586985	     -4.13482704	     -7.24825836	     -1.36640411	      1.01262978	     -0.11555505	     -6.26923239	      7.86756945	     -3.72655340	    -11.43055266	     15.56666658	     -3.78603766	     24.48044537	     -7.95848402	     -9.04619374	    -34.02535859	     10.81090575	      1.26186712	    -17.98898931	      2.32860280	      7.31017110
      1.14000000	      1.06139689	     -4.10733285	     -7.28132854	     -1.36264146	      1.01190013	     -0.11569468	     -6.40405443	      7.79199836	     -3.65889294	    -11.59452079	     15.86237456	     -3.73890094	     24.97149804	     -8.00675239	     -9.32001166	    -33.20889335	     10.31995438	      1.71274440	    -18.16135602	      2.26206749	      7.21054561
      1.15000000	      1.03733961	     -4.06555778	     -7.31373272	     -1.35869202	      1.01113482	     -0.11587612	     -6.53927295	      7.69890894	     -3.60126556	    -11.75578297	     16.14093436	     -3.72100281	     25.43992931	     -8.01519221	     -9.51447280	    -32.34721439	      9.80626478	      1.98634775	    -18.30918383	      2.17839381	      7.13957045
      1.16000000	      1.00904956	     -4.02691097	     -7.34958955	     -1.35453617	      1.01032842	     -0.11608095	     -6.69692286	      7.60607010	     -3.53997721	    -11.89179573	     16.44261709	     -3.67740043	     25.88869258	     -8.01517337	     -9.65622950	    -31.47416258	      9.31977507	      2.38709118	    -18.43753061	      2.09681478	      7.10366650
      1.17000000	      0.97176662	     -3.99574766	     -7.38433215	     -1.35016687	      1.00946974	     -0.11630650	     -6.87897017	      7.52000927	     -3.47507567	    -11.98967003	     16.73064365	     -3.63586080	     26.32783622	     -8.01832454	     -9.76555839	    -30.60383231	      8.83911820	      2.72514583	    -18.53912726	      2.02431921	      7.06933081
      1.18000000	      0.93118319	     -3.96392432	     -7.43422634	     -1.34559000	      1.00857194	     -0.11654689	     -7.07889064	      7.42597742	     -3.40468984	    -12.07339985	     17.03987706	     -3.53720030	     26.73209938	     -8.00694243	     -9.79636968	    -29.71539935	      8.44497149	      3.28383154	    -18.62251123	      1.94769926	      7.10474266
      1.19000000	      0.87815468	     -3.94226044	     -7.48634334	     -1.34080239	      1.00761054	     -0.11677265	     -7.30006256	      7.34475605	     -3.31630773	    -12.12050379	     17.33589873	     -3.45440337	     27.12693626	     -8.00903225	     -9.80611778	    -28.83608990	      8.03282472	      3.68181624	    -18.67560059	      1.87750263	      7.12796226
      1.20000000	      0.80872585	     -3.91301314	     -7.54964126	     -1.33577640	      1.00657799	     -0.11699462	     -7.53797963	      7.25182602	     -3.24533738	    -12.12736117	     17.62530430	     -3.38865512	     27.50797993	     -8.00895234	     -9.81006378	    -27.96073256	      7.61458492	      3.95079496	    -18.68812461	      1.79562196	      7.18612641
